<?xml version="1.0" standalone="no"?>
<!DOCTYPE svg PUBLIC "-//W3C//DTD SVG 20010904//EN"
 "http://www.w3.org/TR/2001/REC-SVG-20010904/DTD/svg10.dtd">
<svg version="1.0" xmlns="http://www.w3.org/2000/svg"
 width="494.000000pt" height="126.000000pt" viewBox="0 0 494.000000 126.000000"
 preserveAspectRatio="xMidYMid meet">
<metadata>
Created by potrace 1.13, written by Peter Selinger 2001-2015
</metadata>
<g transform="translate(0.000000,126.000000) scale(0.100000,-0.100000)"
fill="#000000" stroke="none">
<path d="M1743 1234 c-10 -4 -13 -48 -13 -169 l0 -163 30 11 c22 8 35 9 48 1
26 -16 62 -74 62 -99 0 -28 -36 -62 -75 -70 -54 -12 -54 -12 -45 -43 5 -19 3
-54 -6 -98 -8 -38 -14 -87 -12 -109 l3 -40 135 -3 c259 -6 370 64 370 233 0
87 -37 149 -104 175 l-30 11 30 15 c41 21 62 51 75 110 22 98 -22 191 -106
225 -31 12 -340 23 -362 13z m276 -129 c34 -17 41 -33 41 -88 -1 -69 -36 -97
-119 -97 l-51 0 0 100 0 100 50 0 c28 0 64 -7 79 -15z m10 -309 c69 -36 69
-166 0 -202 -16 -8 -53 -14 -84 -14 l-55 0 0 115 0 115 55 0 c31 0 68 -6 84
-14z"/>
<path d="M2380 1150 l0 -80 235 0 235 0 0 80 0 80 -235 0 -235 0 0 -80z"/>
<path d="M3020 1150 l0 -80 235 0 235 0 0 80 0 80 -235 0 -235 0 0 -80z"/>
<path d="M773 972 c-40 -71 -73 -132 -73 -138 0 -15 116 -74 145 -74 51 0 102
81 76 122 -9 15 -8 18 8 18 26 0 61 46 61 80 0 15 -10 35 -22 47 -27 24 -104
73 -115 73 -5 0 -41 -58 -80 -128z"/>
<path d="M1541 908 c-1 -30 -5 -37 -23 -41 -21 -3 -20 -5 9 -16 81 -31 31 -95
-57 -71 -46 12 -54 39 -18 64 16 12 18 16 7 16 -19 0 -49 -31 -49 -50 0 -7 8
-22 17 -32 9 -10 -16 0 -56 23 -69 40 -72 41 -86 23 -8 -10 -15 -24 -15 -31 0
-6 35 -32 78 -57 l77 -45 18 21 c10 12 16 26 14 32 -3 7 13 11 44 11 46 0 49
-2 49 -26 0 -50 95 -149 143 -149 18 0 47 32 47 53 0 9 -7 17 -15 17 -10 0
-15 -10 -15 -31 0 -17 -4 -28 -10 -24 -17 10 -11 40 11 64 16 17 18 26 10 34
-14 14 -15 50 0 42 6 -4 5 2 -2 13 -17 28 -81 62 -106 58 -14 -3 -24 3 -32 20
-6 13 -16 24 -22 24 -6 0 -9 6 -6 13 3 8 2 29 -3 48 l-8 34 -1 -37z"/>
<path d="M2384 916 c-3 -7 -4 -42 -2 -77 l3 -64 173 -3 172 -2 0 80 0 80 -170
0 c-134 0 -172 -3 -176 -14z"/>
<path d="M3027 923 c-4 -3 -7 -39 -7 -80 l0 -73 175 0 175 0 0 80 0 80 -168 0
c-93 0 -172 -3 -175 -7z"/>
<path d="M3650 480 l0 -260 50 0 50 0 0 260 0 260 -50 0 -50 0 0 -260z"/>
<path d="M612 703 c-23 -22 -29 -38 -30 -76 -2 -43 2 -53 32 -83 27 -27 42
-34 72 -34 42 0 93 28 87 47 -2 6 1 15 8 19 8 4 9 3 5 -4 -4 -7 -5 -12 -2 -12
3 0 10 9 16 21 9 15 8 24 0 35 -7 7 -10 24 -7 36 5 21 -13 60 -27 59 -19 -2
-27 0 -22 7 2 4 -20 9 -50 10 -48 3 -58 0 -82 -25z m139 -22 c79 -80 -32 -191
-117 -117 -57 49 -19 146 57 146 20 0 40 -10 60 -29z"/>
<path d="M848 604 c-102 -55 -58 -214 59 -214 16 0 40 14 65 40 37 37 39 42
36 89 -4 55 -21 83 -45 74 -11 -4 -14 -2 -9 5 5 8 1 10 -10 5 -12 -4 -15 -3
-10 5 11 17 -53 15 -86 -4z m116 -39 c33 -30 35 -81 5 -119 -28 -36 -89 -37
-124 -1 -79 78 37 196 119 120z"/>
<path d="M2382 538 l3 -83 233 -3 232 -2 0 85 0 85 -235 0 -236 0 3 -82z"/>
<path d="M3022 538 l3 -83 233 -3 232 -2 0 85 0 85 -235 0 -236 0 3 -82z"/>
<path d="M3857 594 c-4 -4 -7 -90 -7 -191 l0 -183 50 0 50 0 0 126 c0 125 0
126 29 155 33 33 56 36 89 13 21 -14 22 -22 22 -155 l0 -139 51 0 50 0 -3 160
c-3 157 -3 160 -29 186 -28 27 -89 41 -133 30 -13 -3 -38 -17 -55 -31 l-30
-26 -3 28 c-3 24 -8 28 -38 31 -20 2 -39 0 -43 -4z"/>
<path d="M4380 589 c-82 -34 -122 -131 -99 -238 13 -62 40 -98 93 -122 81 -37
186 -12 226 53 31 51 26 64 -22 72 -26 4 -44 3 -46 -3 -11 -32 -46 -61 -73
-61 -92 0 -121 187 -36 228 35 17 83 1 93 -30 5 -18 12 -19 52 -13 26 4 49 8
51 10 7 8 -35 69 -62 88 -31 24 -136 34 -177 16z"/>
<path d="M1059 474 c-66 -35 -64 -159 3 -195 28 -15 88 -21 88 -8 0 6 7 9 15
6 8 -4 17 -1 21 5 5 7 2 8 -6 3 -8 -5 -11 -4 -6 3 4 6 14 8 23 5 12 -5 15 -2
10 10 -3 9 -1 19 5 23 7 5 8 2 4 -7 -4 -8 0 -5 8 5 17 21 22 41 8 32 -4 -2 -8
4 -8 15 0 10 4 19 8 19 4 0 8 5 8 11 0 5 -4 7 -10 4 -5 -3 -7 0 -4 8 3 8 -5
27 -19 42 -19 23 -32 28 -75 29 -28 1 -61 -3 -73 -10z m106 -20 c19 -8 45 -55
45 -84 0 -12 -13 -35 -29 -51 -48 -48 -111 -36 -137 26 -30 74 42 139 121 109z"/>
<path d="M1860 378 c-108 -55 -130 -184 -46 -275 21 -24 48 -39 81 -48 35 -10
42 -14 23 -14 -38 -1 -70 13 -114 50 l-39 33 30 -33 c35 -39 66 -56 118 -65
29 -5 37 -4 37 7 0 9 14 17 35 21 77 15 141 105 131 185 -16 127 -142 196
-256 139z m160 -20 c50 -34 72 -71 77 -125 8 -93 -59 -164 -156 -165 -64 0
-109 26 -140 82 -57 102 20 230 139 230 32 0 57 -7 80 -22z"/>
<path d="M2418 371 c-141 -90 -73 -321 95 -321 186 0 252 223 98 327 -51 35
-133 32 -193 -6z m190 -13 c39 -24 72 -84 72 -133 0 -20 -9 -53 -20 -74 -52
-103 -203 -113 -273 -19 -27 36 -34 125 -14 164 45 86 150 114 235 62z"/>
<path d="M3035 385 c-102 -47 -136 -158 -78 -251 85 -135 288 -102 321 52 17
80 -26 170 -95 199 -44 19 -108 19 -148 0z m144 -20 c99 -51 117 -177 36 -255
-31 -30 -42 -34 -98 -38 -49 -2 -69 1 -95 17 -97 62 -97 211 0 271 40 24 116
27 157 5z"/>
</g>
</svg>
